<svg id="Layer_1" data-name="Layer 1" xmlns="http://www.w3.org/2000/svg" viewBox="0 0 107.65 28.59"><defs><style>.cls-1,.cls-2{fill:#fff;}.cls-2,.cls-3,.cls-4{fill-rule:evenodd;}.cls-3{fill:#44c1c0;}.cls-4{fill:#2b2979;}</style></defs><title>website</title><path class="cls-1" d="M103.49,13.56a.49.49,0,0,0-.48-.48H85.86a.47.47,0,0,0-.47.39h0v.11a9.88,9.88,0,0,1-9.85,9.51,9.76,9.76,0,0,1-3.47-.63.47.47,0,0,0-.5.11l-.91.92a.48.48,0,0,0,.15.78,11.84,11.84,0,0,0,4.73,1,12,12,0,0,0,11.84-10h12.82l-2.91,2.93a.48.48,0,0,0,0,.68l.85.86a.5.5,0,0,0,.68,0l4.52-4.55a.43.43,0,0,0,.11-.2.46.46,0,0,0,0-.2Z"/><path class="cls-1" d="M75.06,3.28a.49.49,0,0,0,.45-.49V1.58A.48.48,0,0,0,75,1.1,12.09,12.09,0,0,0,64.6,18.17a.48.48,0,0,0,.77.14l.91-.92a.49.49,0,0,0,.1-.52A9.92,9.92,0,0,1,75.06,3.28"/><path class="cls-2" d="M75.28,18a4.83,4.83,0,1,0-4.8-4.83A4.82,4.82,0,0,0,75.28,18Z"/><path class="cls-3" d="M67.28,13.15a8,8,0,1,0,8-8,8,8,0,0,0-8,8Zm8,6.43a6.43,6.43,0,1,1,6.39-6.43A6.41,6.41,0,0,1,75.28,19.58Z"/><path class="cls-4" d="M75.3,13.78a.56.56,0,1,0,0-1.12.56.56,0,0,0,0,1.12Z"/><path class="cls-1" d="M11,8.7H10.7a1.19,1.19,0,0,1-.44-.08.89.89,0,0,1-.55-.44.75.75,0,0,1-.06-.29.46.46,0,0,1,.2-.42,1,1,0,0,1,.53-.13l.33,0a.12.12,0,0,0,.14-.11l.06-.37a.14.14,0,0,0-.13-.16l-.45,0a1.74,1.74,0,0,0-.59.09A1.25,1.25,0,0,0,9.33,7a.93.93,0,0,0-.24.33A.91.91,0,0,0,9,7.73a1,1,0,0,0,.05.35,1,1,0,0,0,.12.28,1,1,0,0,0,.17.21.58.58,0,0,0,.15.13H8.8a.16.16,0,0,0-.16.16v.31a.16.16,0,0,0,.16.16h2A.17.17,0,0,0,11,9.17V8.7"/><path class="cls-1" d="M19.47,6.27a.75.75,0,0,0,.26,0A.93.93,0,0,0,20,6.08a.86.86,0,0,0,.15-.22.75.75,0,0,0,0-.26.76.76,0,0,0,0-.27A.8.8,0,0,0,20,5.12.48.48,0,0,0,19.73,5a.59.59,0,0,0-.52,0,.48.48,0,0,0-.22.15.66.66,0,0,0-.19.48.65.65,0,0,0,.67.67"/><path class="cls-1" d="M17.66,6.27a.75.75,0,0,0,.26,0,.93.93,0,0,0,.22-.14.86.86,0,0,0,.15-.22.75.75,0,0,0,.05-.26.76.76,0,0,0-.05-.27.8.8,0,0,0-.15-.21A.48.48,0,0,0,17.92,5a.59.59,0,0,0-.52,0,.45.45,0,0,0-.21.15.8.8,0,0,0-.15.21A.76.76,0,0,0,17,5.6a.65.65,0,0,0,.67.67"/><path class="cls-1" d="M27.29,9.29A3.42,3.42,0,0,0,27,8.72a2.37,2.37,0,0,0-.47-.48,2.22,2.22,0,0,0-.63-.33,2.35,2.35,0,0,0-.77-.12,3.62,3.62,0,0,0-.43,0,2,2,0,0,0-.48.17,2.79,2.79,0,0,0-.52.33,3.15,3.15,0,0,0-.51.56,4.77,4.77,0,0,0-.48.85,7.17,7.17,0,0,0-.41,1.17.89.89,0,0,1-.42.58,1.35,1.35,0,0,1-.7.18h-.35a3.63,3.63,0,0,1-.93-.1,2,2,0,0,1-.68-.29v-3a.36.36,0,0,0-.35-.36h-.43a.36.36,0,0,0-.36.36V11a1,1,0,0,1-.12.54.36.36,0,0,1-.32.18H16.25a3.24,3.24,0,0,1-1.06-.14,2,2,0,0,1-.74-.41V4a.36.36,0,0,0-.35-.36h-.44a.36.36,0,0,0-.35.36V11a1,1,0,0,1-.12.54.36.36,0,0,1-.32.18H8.59A11.64,11.64,0,0,1,7,11.59a2.71,2.71,0,0,1-.92-.25.82.82,0,0,1-.41-.44,2.08,2.08,0,0,1-.1-.66,2.94,2.94,0,0,1,0-.51.37.37,0,0,0-.32-.42l-.37,0a.36.36,0,0,0-.39.31,2.44,2.44,0,0,1,0,.3l0,.33c0,.11,0,.2,0,.28a4.1,4.1,0,0,0,0,.62,2.07,2.07,0,0,0,.17.55,1.56,1.56,0,0,0,.36.46,1.86,1.86,0,0,0,.62.37,4.46,4.46,0,0,0,.93.24,9.78,9.78,0,0,0,1.31.08H13.1a1.31,1.31,0,0,0,.41-.06,1.66,1.66,0,0,0,.33-.15,1.84,1.84,0,0,0,.25-.23,1.67,1.67,0,0,0,.18-.28,2,2,0,0,0,.35.28,1.88,1.88,0,0,0,.42.23,2.64,2.64,0,0,0,.54.16,4.33,4.33,0,0,0,.66.05h1.59a1.17,1.17,0,0,0,.67-.18,1.44,1.44,0,0,0,.42-.43,2.6,2.6,0,0,0,.75.44,3.08,3.08,0,0,0,1.09.17h.57a2.29,2.29,0,0,0,.47,0,1.16,1.16,0,0,0,.38-.15,1.4,1.4,0,0,0,.33-.27,2,2,0,0,0,.28-.42,3.17,3.17,0,0,0,.37.34,3.11,3.11,0,0,0,.51.3,3.81,3.81,0,0,0,.65.22,3.19,3.19,0,0,0,.77.08,2.68,2.68,0,0,0,.78-.1,2.23,2.23,0,0,0,.62-.3,2,2,0,0,0,.48-.43,2.48,2.48,0,0,0,.32-.5,2.32,2.32,0,0,0,.19-.54,2.09,2.09,0,0,0,.07-.53,2.41,2.41,0,0,0-.07-.58,2.69,2.69,0,0,0-.19-.61m-.88,1.88a.87.87,0,0,1-.32.34,1.46,1.46,0,0,1-.51.17,3.2,3.2,0,0,1-.65.06,2.46,2.46,0,0,1-.53-.06,2.64,2.64,0,0,1-.52-.13,2.57,2.57,0,0,1-.43-.17.8.8,0,0,1-.25-.19,4.2,4.2,0,0,1,.23-.86,4,4,0,0,1,.39-.74,2.16,2.16,0,0,1,.54-.51,1.22,1.22,0,0,1,.67-.2,1.1,1.1,0,0,1,.68.18,1.64,1.64,0,0,1,.46.45,2.25,2.25,0,0,1,.35,1.1,1.3,1.3,0,0,1-.11.56"/><path class="cls-1" d="M56.06,8.25v3.42h-.91a4.91,4.91,0,0,1-.89-.08,2,2,0,0,1-.74-.31V8.94a.35.35,0,0,0-.35-.36h-.43a.36.36,0,0,0-.36.36v2a1.09,1.09,0,0,1-.11.54.38.38,0,0,1-.33.18h-.43a5,5,0,0,1-.88-.08,2.08,2.08,0,0,1-.75-.32V9.48a.35.35,0,0,0-.35-.35H49.1a.36.36,0,0,0-.36.35V11a1,1,0,0,1-.12.54.36.36,0,0,1-.32.18h-10a3.28,3.28,0,0,1-1.06-.14,1.87,1.87,0,0,1-.73-.41V4a.36.36,0,0,0-.35-.36h-.43a.36.36,0,0,0-.36.36V11a1,1,0,0,1-.12.54.36.36,0,0,1-.32.18H33.28V6.5a.38.38,0,0,0-.37-.37H32.5a.37.37,0,0,0-.36.37v5.17H29.71a.39.39,0,0,0-.39.39v.38a.39.39,0,0,0,.39.38H35.2a1.19,1.19,0,0,0,.73-.21,1.36,1.36,0,0,0,.43-.5,3.3,3.3,0,0,0,.35.28,2.5,2.5,0,0,0,.43.23,3.35,3.35,0,0,0,.53.15,4.43,4.43,0,0,0,.66.05H48.54a1.26,1.26,0,0,0,.67-.17,1.32,1.32,0,0,0,.42-.43,1.92,1.92,0,0,0,.42.28,2.34,2.34,0,0,0,.46.19,3.86,3.86,0,0,0,.49.1,4,4,0,0,0,.49,0h.69a1.22,1.22,0,0,0,.66-.17,1.33,1.33,0,0,0,.43-.42,1.86,1.86,0,0,0,.44.29,2.34,2.34,0,0,0,.48.18,2.21,2.21,0,0,0,.49.09l.45,0h1.71a.38.38,0,0,0,.37-.37V8.25a.36.36,0,0,0-.36-.36h-.43a.36.36,0,0,0-.36.36"/><path class="cls-1" d="M3.8,23A5.66,5.66,0,0,0,6,23.45c1.27,0,2-.51,2-1.23s-.52-1.06-1.81-1.44c-1.57-.42-2.53-1-2.53-2s1.23-2,3.1-2a5.63,5.63,0,0,1,2.12.35l-.34.76a4.87,4.87,0,0,0-1.82-.34c-1.31,0-1.81.59-1.81,1.08,0,.68.58,1,1.91,1.39,1.62.47,2.44,1.06,2.44,2.12S8.2,24.22,5.93,24.22a6.38,6.38,0,0,1-2.44-.46Z"/><path class="cls-1" d="M14.8,24.11l-.1-.65h0a3,3,0,0,1-2.11.77c-1.39,0-2.11-.74-2.11-1.49,0-1.25,1.48-1.94,4.14-1.93v-.1c0-.43-.15-1.2-1.56-1.2a4.36,4.36,0,0,0-1.79.38l-.29-.62a5.53,5.53,0,0,1,2.26-.46c2.11,0,2.62,1.08,2.62,2.12v1.94a5.22,5.22,0,0,0,.12,1.24Zm-.19-2.64c-1.36,0-2.91.16-2.91,1.16,0,.61.54.9,1.18.9a1.76,1.76,0,0,0,1.66-.86.87.87,0,0,0,.07-.3Z"/><path class="cls-1" d="M17.84,16.51h1.25v7.6H17.84Z"/><path class="cls-1" d="M25,24.11l-.1-.65h0a2.93,2.93,0,0,1-2.11.77c-1.39,0-2.1-.74-2.1-1.49,0-1.25,1.48-1.94,4.14-1.93v-.1c0-.43-.16-1.2-1.57-1.2a4.36,4.36,0,0,0-1.79.38l-.28-.62a5.49,5.49,0,0,1,2.26-.46c2.1,0,2.62,1.08,2.62,2.12v1.94a5.25,5.25,0,0,0,.11,1.24Zm-.18-2.64c-1.37,0-2.92.16-2.92,1.16,0,.61.54.9,1.18.9a1.76,1.76,0,0,0,1.67-.86.87.87,0,0,0,.07-.3Z"/><path class="cls-1" d="M28.06,20.33c0-.53,0-1-.06-1.4h1.09l.06.84h0a2.56,2.56,0,0,1,2.17-1,2.08,2.08,0,0,1,2,1h0a2.55,2.55,0,0,1,.77-.67,2.85,2.85,0,0,1,1.52-.37,2.11,2.11,0,0,1,2.27,2.25v3.05H36.66V21.18c0-1-.48-1.6-1.49-1.6a1.62,1.62,0,0,0-1.48.86,1.16,1.16,0,0,0-.1.47v3.2H32.37V21a1.33,1.33,0,0,0-1.44-1.43,1.67,1.67,0,0,0-1.55,1,1,1,0,0,0-.1.46v3.12H28.06Z"/><path class="cls-1" d="M41.37,17.44v1.49h1.79v.72H41.37v2.79c0,.64.24,1,.94,1a3.79,3.79,0,0,0,.73-.07l.05.71a4.13,4.13,0,0,1-1.11.13,2.05,2.05,0,0,1-1.35-.4,1.62,1.62,0,0,1-.48-1.35V19.65H39.08v-.72h1.07V17.69Z"/><path class="cls-1" d="M48.39,24.11l-.1-.65h0a2.92,2.92,0,0,1-2.1.77c-1.4,0-2.11-.74-2.11-1.49,0-1.25,1.48-1.94,4.14-1.93v-.1c0-.43-.15-1.2-1.56-1.2a4.45,4.45,0,0,0-1.8.38l-.28-.62a5.49,5.49,0,0,1,2.26-.46c2.11,0,2.62,1.08,2.62,2.12v1.94a5.83,5.83,0,0,0,.11,1.24Zm-.19-2.64c-1.37,0-2.92.16-2.92,1.16,0,.61.54.9,1.18.9a1.76,1.76,0,0,0,1.67-.86.87.87,0,0,0,.07-.3Z"/><path class="cls-1" d="M52.67,21.31h0c.17-.19.41-.41.61-.59l2-1.79h1.51l-2.66,2.13,3,3.05H55.68l-2.37-2.48-.64.53v1.95H51.43v-7.6h1.24Z"/></svg>