<svg id="Layer_1" data-name="Layer 1" xmlns="http://www.w3.org/2000/svg" viewBox="0 0 105.65 28.24"><defs><style>.cls-1,.cls-2{fill:#2b2979;}.cls-2,.cls-3,.cls-4{fill-rule:evenodd;}.cls-3{fill:#44c1c0;}.cls-4{fill:#fff;}.cls-5{fill:#2d2c71;}</style></defs><title>website</title><path class="cls-1" d="M104,13.54a.47.47,0,0,0-.48-.48H86.33a.48.48,0,0,0-.47.39h0v0a.07.07,0,0,0,0,0v0A9.88,9.88,0,0,1,76,23.07a9.76,9.76,0,0,1-3.47-.63.46.46,0,0,0-.51.11l-.91.91a.49.49,0,0,0,.15.79,12,12,0,0,0,16.57-9h12.82l-2.9,2.92a.49.49,0,0,0,0,.69l.85.85a.48.48,0,0,0,.68,0l4.51-4.54a.47.47,0,0,0,.12-.2.45.45,0,0,0,0-.2Z"/><path class="cls-1" d="M75.53,3.25A.48.48,0,0,0,76,2.77V1.56a.48.48,0,0,0-.5-.48A12.1,12.1,0,0,0,65.07,18.14a.48.48,0,0,0,.78.14l.9-.91a.48.48,0,0,0,.11-.52,9.93,9.93,0,0,1,8.67-13.6"/><path class="cls-2" d="M75.75,18A4.83,4.83,0,1,0,71,13.13,4.82,4.82,0,0,0,75.75,18Z"/><path class="cls-3" d="M67.76,13.13a8,8,0,1,0,8-8,8,8,0,0,0-8,8Zm8,6.43a6.44,6.44,0,1,1,6.4-6.43A6.41,6.41,0,0,1,75.75,19.56Z"/><path class="cls-4" d="M75.77,13.76a.56.56,0,0,0,.56-.56.56.56,0,1,0-1.12,0A.56.56,0,0,0,75.77,13.76Z"/><path class="cls-1" d="M11.44,8.68h-.26a1.13,1.13,0,0,1-.44-.07,1.06,1.06,0,0,1-.35-.19.63.63,0,0,1-.2-.26.72.72,0,0,1-.07-.28.47.47,0,0,1,.21-.43,1,1,0,0,1,.53-.12l.33,0a.13.13,0,0,0,.13-.11l.06-.37a.15.15,0,0,0-.13-.17l-.44,0a1.7,1.7,0,0,0-.59.09A1,1,0,0,0,9.81,7a.81.81,0,0,0-.25.33,1,1,0,0,0-.08.38,1.36,1.36,0,0,0,0,.36,1.82,1.82,0,0,0,.13.28,1.16,1.16,0,0,0,.16.21l.15.13h-.7a.16.16,0,0,0-.16.15v.32a.16.16,0,0,0,.16.16h2a.17.17,0,0,0,.16-.17V8.68"/><path class="cls-5" d="M20,6.25a.75.75,0,0,0,.26,0,.8.8,0,0,0,.21-.15.62.62,0,0,0,.15-.21.59.59,0,0,0,.05-.27.58.58,0,0,0-.05-.26.66.66,0,0,0-.15-.22A.6.6,0,0,0,20.21,5,.58.58,0,0,0,20,4.89a.72.72,0,0,0-.48.2.64.64,0,0,0-.14.22.58.58,0,0,0-.06.26.68.68,0,0,0,.2.49.65.65,0,0,0,.48.19"/><path class="cls-5" d="M18.14,6.25a.75.75,0,0,0,.26,0,.86.86,0,0,0,.22-.15.72.72,0,0,0,.2-.48.58.58,0,0,0-.06-.26A.6.6,0,0,0,18.4,5a.58.58,0,0,0-.26-.06.63.63,0,0,0-.27.06.6.6,0,0,0-.21.14.64.64,0,0,0-.14.22.58.58,0,0,0-.06.26.68.68,0,0,0,.2.49.65.65,0,0,0,.48.19"/><path class="cls-1" d="M27.76,9.27a3.25,3.25,0,0,0-.33-.57A2.73,2.73,0,0,0,27,8.22a2.16,2.16,0,0,0-.62-.33,2.35,2.35,0,0,0-.77-.12,2.15,2.15,0,0,0-.43,0,2,2,0,0,0-.49.16,2.51,2.51,0,0,0-.51.34,2.54,2.54,0,0,0-.51.56,4.65,4.65,0,0,0-.48.84,7.31,7.31,0,0,0-.41,1.18,1,1,0,0,1-.42.58,1.38,1.38,0,0,1-.7.18h-.36a3.63,3.63,0,0,1-.93-.1,2,2,0,0,1-.67-.3v-3a.36.36,0,0,0-.36-.36h-.43a.35.35,0,0,0-.35.36v2.7a1,1,0,0,1-.12.54.37.37,0,0,1-.32.18H16.73a3.65,3.65,0,0,1-1.07-.14,1.89,1.89,0,0,1-.73-.42V4a.36.36,0,0,0-.36-.35h-.43a.36.36,0,0,0-.36.35v7a1,1,0,0,1-.11.54.37.37,0,0,1-.32.18H9.07a13.54,13.54,0,0,1-1.62-.08,2.65,2.65,0,0,1-.91-.25.84.84,0,0,1-.41-.45,1.81,1.81,0,0,1-.1-.65,2.92,2.92,0,0,1,0-.51.36.36,0,0,0-.31-.42l-.37,0a.36.36,0,0,0-.39.3c0,.13,0,.26,0,.31l0,.33c0,.11,0,.2,0,.28a4,4,0,0,0,0,.61,1.69,1.69,0,0,0,.18.55,1.44,1.44,0,0,0,.36.47,2,2,0,0,0,.61.37,4.21,4.21,0,0,0,.93.23,8.37,8.37,0,0,0,1.32.09h5.22a1.31,1.31,0,0,0,.41-.06,1.07,1.07,0,0,0,.32-.16.92.92,0,0,0,.25-.23,1.59,1.59,0,0,0,.18-.27,3.3,3.3,0,0,0,.35.28,2.5,2.5,0,0,0,.43.23,2.18,2.18,0,0,0,.53.15,3.4,3.4,0,0,0,.67.06H18.3a1.15,1.15,0,0,0,.67-.18,1.23,1.23,0,0,0,.42-.43,2.75,2.75,0,0,0,.75.44,3.14,3.14,0,0,0,1.1.17h.57a2.09,2.09,0,0,0,.46-.05,1.64,1.64,0,0,0,.39-.14,1.58,1.58,0,0,0,.32-.27,2.19,2.19,0,0,0,.28-.42,3.26,3.26,0,0,0,.89.64,4.49,4.49,0,0,0,.65.22,3.71,3.71,0,0,0,.77.08,2.48,2.48,0,0,0,1.4-.4,2.15,2.15,0,0,0,.47-.43,2.34,2.34,0,0,0,.33-.51A2.47,2.47,0,0,0,28,11a2.44,2.44,0,0,0,.06-.52A3.11,3.11,0,0,0,28,9.87a2.82,2.82,0,0,0-.2-.6m-.88,1.87a.83.83,0,0,1-.32.35,1.4,1.4,0,0,1-.5.17,3.41,3.41,0,0,1-.66.05,2.49,2.49,0,0,1-.53-.05,4.39,4.39,0,0,1-.52-.13,2.41,2.41,0,0,1-.43-.18.62.62,0,0,1-.24-.19,3.7,3.7,0,0,1,.23-.85,2.89,2.89,0,0,1,.39-.74,1.87,1.87,0,0,1,.54-.51,1.29,1.29,0,0,1,.66-.21,1.16,1.16,0,0,1,.68.19,1.52,1.52,0,0,1,.46.45,1.93,1.93,0,0,1,.27.56,1.9,1.9,0,0,1,.09.54,1.09,1.09,0,0,1-.12.55"/><path class="cls-1" d="M56.54,8.22v3.43h-.92a4.19,4.19,0,0,1-.89-.09,1.84,1.84,0,0,1-.73-.31V8.92a.36.36,0,0,0-.36-.36h-.43a.36.36,0,0,0-.35.36v2a1,1,0,0,1-.12.54.36.36,0,0,1-.32.18H52a4.85,4.85,0,0,1-.87-.08,2.1,2.1,0,0,1-.75-.32V9.46A.36.36,0,0,0,50,9.1h-.43a.36.36,0,0,0-.35.36v1.47a1,1,0,0,1-.12.54.37.37,0,0,1-.32.18h-10a3.58,3.58,0,0,1-1.06-.14A1.93,1.93,0,0,1,37,11.1V4a.36.36,0,0,0-.36-.35h-.43a.35.35,0,0,0-.35.35v7a1,1,0,0,1-.12.54.37.37,0,0,1-.32.18h-1.7V6.48a.36.36,0,0,0-.36-.37H33a.36.36,0,0,0-.37.37v5.17H30.18a.38.38,0,0,0-.38.38v.38a.38.38,0,0,0,.38.39h5.5a1.21,1.21,0,0,0,.73-.21,1.4,1.4,0,0,0,.43-.51,2.57,2.57,0,0,0,.35.29,2.37,2.37,0,0,0,.42.22,2.13,2.13,0,0,0,.54.15,3.2,3.2,0,0,0,.65.06H49a1.29,1.29,0,0,0,.68-.17,1.56,1.56,0,0,0,.42-.43,2.29,2.29,0,0,0,.41.28,1.91,1.91,0,0,0,.47.18,4.15,4.15,0,0,0,.48.11,4.19,4.19,0,0,0,.5,0h.68a1.26,1.26,0,0,0,.67-.17,1.23,1.23,0,0,0,.42-.43,2.45,2.45,0,0,0,.44.3,4.09,4.09,0,0,0,.49.18,2.81,2.81,0,0,0,.49.09l.45,0h1.7a.37.37,0,0,0,.37-.37V8.22a.36.36,0,0,0-.35-.36h-.44a.36.36,0,0,0-.35.36"/><path class="cls-1" d="M4.28,23a5.41,5.41,0,0,0,2.22.47c1.26,0,2-.5,2-1.23S8,21.13,6.69,20.76c-1.56-.42-2.53-1-2.53-2s1.24-2,3.1-2a5.55,5.55,0,0,1,2.12.35L9,17.87a4.78,4.78,0,0,0-1.82-.34c-1.31,0-1.81.59-1.81,1.08,0,.67.59,1,1.91,1.39,1.62.47,2.45,1.06,2.45,2.12s-1.1,2.07-3.36,2.07A6.28,6.28,0,0,1,4,23.73Z"/><path class="cls-1" d="M15.27,24.09l-.1-.66h0a2.88,2.88,0,0,1-2.1.77c-1.4,0-2.11-.73-2.11-1.48,0-1.25,1.48-1.94,4.14-1.93v-.11c0-.42-.16-1.19-1.57-1.19a4.4,4.4,0,0,0-1.79.38l-.28-.62a5.34,5.34,0,0,1,2.26-.46c2.11,0,2.62,1.08,2.62,2.12v1.94a6,6,0,0,0,.11,1.24Zm-.18-2.65c-1.37,0-2.92.16-2.92,1.17,0,.61.54.9,1.18.9A1.75,1.75,0,0,0,15,22.64a.78.78,0,0,0,.07-.3Z"/><path class="cls-1" d="M18.32,16.49h1.25v7.6H18.32Z"/><path class="cls-1" d="M25.49,24.09l-.1-.66h0a2.92,2.92,0,0,1-2.11.77c-1.39,0-2.11-.73-2.11-1.48,0-1.25,1.48-1.94,4.14-1.93v-.11c0-.42-.15-1.19-1.56-1.19a4.36,4.36,0,0,0-1.79.38l-.29-.62a5.37,5.37,0,0,1,2.26-.46c2.11,0,2.62,1.08,2.62,2.12v1.94a5.33,5.33,0,0,0,.12,1.24Zm-.19-2.65c-1.36,0-2.91.16-2.91,1.17,0,.61.54.9,1.18.9a1.75,1.75,0,0,0,1.66-.87.78.78,0,0,0,.07-.3Z"/><path class="cls-1" d="M28.53,20.31a11.94,11.94,0,0,0-.06-1.4h1.1l.06.83h0a2.55,2.55,0,0,1,2.16-.95,2.08,2.08,0,0,1,2,1h0a2.37,2.37,0,0,1,.77-.68,3,3,0,0,1,1.52-.36A2.1,2.1,0,0,1,38.36,21v3.05H37.14V21.15a1.39,1.39,0,0,0-1.5-1.59,1.6,1.6,0,0,0-1.47.86,1.16,1.16,0,0,0-.1.47v3.2H32.84V21a1.32,1.32,0,0,0-1.43-1.42,1.68,1.68,0,0,0-1.56.94,1,1,0,0,0-.09.46v3.13H28.53Z"/><path class="cls-1" d="M41.85,17.42v1.49h1.79v.71H41.85v2.8c0,.64.24,1,.94,1a3.84,3.84,0,0,0,.72-.06l.06.71a4.27,4.27,0,0,1-1.11.12,2.11,2.11,0,0,1-1.35-.39,1.6,1.6,0,0,1-.49-1.35V19.62H39.56v-.71h1.06V17.67Z"/><path class="cls-1" d="M48.86,24.09l-.1-.66h0a2.92,2.92,0,0,1-2.11.77c-1.39,0-2.1-.73-2.1-1.48,0-1.25,1.48-1.94,4.14-1.93v-.11c0-.42-.16-1.19-1.57-1.19a4.36,4.36,0,0,0-1.79.38L45,19.25a5.3,5.3,0,0,1,2.26-.46c2.1,0,2.62,1.08,2.62,2.12v1.94A5.35,5.35,0,0,0,50,24.09Zm-.18-2.65c-1.37,0-2.92.16-2.92,1.17,0,.61.54.9,1.18.9a1.72,1.72,0,0,0,1.66-.87.64.64,0,0,0,.08-.3Z"/><path class="cls-1" d="M53.14,21.28h0c.17-.18.41-.4.61-.59l2-1.78h1.51L54.65,21l3,3.05H56.16L53.78,21.6l-.64.54v1.95H51.91v-7.6h1.23Z"/></svg>